<mxfile host="app.diagrams.net" modified="2024-06-20T05:51:54.683Z" agent="Mozilla/5.0 (Macintosh; Intel Mac OS X 10.15; rv:127.0) Gecko/20100101 Firefox/127.0" etag="ssozILbcdY-T-9fIyjm3" version="24.5.5" type="github">
  <diagram name="Page-1" id="mZwM6rzMWvi4H8JNIRrR">
    <mxGraphModel dx="875" dy="576" grid="1" gridSize="10" guides="1" tooltips="1" connect="1" arrows="1" fold="1" page="1" pageScale="1" pageWidth="850" pageHeight="1100" math="0" shadow="0">
      <root>
        <mxCell id="0" />
        <mxCell id="1" parent="0" />
        <mxCell id="3nUyfWOZzwsNEdxvCIEk-12" value="" style="whiteSpace=wrap;html=1;aspect=fixed;fillColor=#1ba1e2;fontColor=#ffffff;strokeColor=#006EAF;" vertex="1" parent="1">
          <mxGeometry x="100" y="40" width="720" height="720" as="geometry" />
        </mxCell>
        <mxCell id="3nUyfWOZzwsNEdxvCIEk-13" value="Mainframe Legacy" style="rounded=0;whiteSpace=wrap;html=1;rotation=90;horizontal=0;fillColor=#dae8fc;strokeColor=#6c8ebf;" vertex="1" parent="1">
          <mxGeometry x="130" y="280" width="250" height="150" as="geometry" />
        </mxCell>
        <mxCell id="3nUyfWOZzwsNEdxvCIEk-14" value="Legacy Datacenter" style="rounded=0;whiteSpace=wrap;html=1;rotation=90;horizontal=0;fillColor=#fff2cc;strokeColor=#d6b656;" vertex="1" parent="1">
          <mxGeometry x="540" y="280" width="250" height="150" as="geometry" />
        </mxCell>
        <mxCell id="3nUyfWOZzwsNEdxvCIEk-15" value="DevOps Pipe line " style="outlineConnect=0;dashed=0;verticalLabelPosition=bottom;verticalAlign=top;align=center;html=1;shape=mxgraph.aws3.codepipeline;fillColor=#d80073;fontColor=#ffffff;strokeColor=#A50040;" vertex="1" parent="1">
          <mxGeometry x="421.25" y="520" width="67.5" height="81" as="geometry" />
        </mxCell>
        <mxCell id="3nUyfWOZzwsNEdxvCIEk-16" value="" style="image;html=1;image=img/lib/clip_art/computers/Mainframe_128x128.png" vertex="1" parent="1">
          <mxGeometry x="215" y="260" width="80" height="80" as="geometry" />
        </mxCell>
        <mxCell id="3nUyfWOZzwsNEdxvCIEk-17" value="" style="image;sketch=0;aspect=fixed;html=1;points=[];align=center;fontSize=12;image=img/lib/mscae/Managed_Applications.svg;" vertex="1" parent="1">
          <mxGeometry x="640" y="270" width="47" height="50" as="geometry" />
        </mxCell>
        <mxCell id="3nUyfWOZzwsNEdxvCIEk-18" value="Cloud" style="html=1;whiteSpace=wrap;strokeColor=#001DBC;fillColor=#0050ef;labelPosition=center;verticalLabelPosition=middle;verticalAlign=top;align=center;fontSize=12;outlineConnect=0;spacingTop=-6;fontColor=#ffffff;sketch=0;shape=mxgraph.sitemap.cloud;" vertex="1" parent="1">
          <mxGeometry x="400" y="120" width="140" height="80" as="geometry" />
        </mxCell>
        <mxCell id="3nUyfWOZzwsNEdxvCIEk-19" value="" style="curved=1;endArrow=classic;html=1;rounded=0;exitX=0.5;exitY=0;exitDx=0;exitDy=0;exitPerimeter=0;entryX=0.444;entryY=0;entryDx=0;entryDy=0;entryPerimeter=0;" edge="1" parent="1" source="3nUyfWOZzwsNEdxvCIEk-15" target="3nUyfWOZzwsNEdxvCIEk-13">
          <mxGeometry width="50" height="50" relative="1" as="geometry">
            <mxPoint x="400" y="370" as="sourcePoint" />
            <mxPoint x="450" y="320" as="targetPoint" />
            <Array as="points">
              <mxPoint x="450" y="370" />
              <mxPoint x="400" y="320" />
            </Array>
          </mxGeometry>
        </mxCell>
        <mxCell id="3nUyfWOZzwsNEdxvCIEk-20" value="" style="curved=1;endArrow=classic;html=1;rounded=0;exitX=0.5;exitY=0;exitDx=0;exitDy=0;exitPerimeter=0;entryX=0.456;entryY=1.027;entryDx=0;entryDy=0;entryPerimeter=0;" edge="1" parent="1" source="3nUyfWOZzwsNEdxvCIEk-15" target="3nUyfWOZzwsNEdxvCIEk-14">
          <mxGeometry width="50" height="50" relative="1" as="geometry">
            <mxPoint x="400" y="370" as="sourcePoint" />
            <mxPoint x="450" y="320" as="targetPoint" />
            <Array as="points">
              <mxPoint x="450" y="370" />
              <mxPoint x="400" y="320" />
            </Array>
          </mxGeometry>
        </mxCell>
        <mxCell id="3nUyfWOZzwsNEdxvCIEk-21" value="" style="curved=1;endArrow=classic;html=1;rounded=0;exitX=0.5;exitY=0;exitDx=0;exitDy=0;exitPerimeter=0;entryX=0.5;entryY=1;entryDx=0;entryDy=0;entryPerimeter=0;" edge="1" parent="1" source="3nUyfWOZzwsNEdxvCIEk-15" target="3nUyfWOZzwsNEdxvCIEk-18">
          <mxGeometry width="50" height="50" relative="1" as="geometry">
            <mxPoint x="400" y="370" as="sourcePoint" />
            <mxPoint x="450" y="320" as="targetPoint" />
            <Array as="points">
              <mxPoint x="450" y="370" />
              <mxPoint x="400" y="320" />
            </Array>
          </mxGeometry>
        </mxCell>
      </root>
    </mxGraphModel>
  </diagram>
</mxfile>
